<?xml version="1.0" standalone="no"?>
<!DOCTYPE svg PUBLIC "-//W3C//DTD SVG 20010904//EN"
 "http://www.w3.org/TR/2001/REC-SVG-20010904/DTD/svg10.dtd">
<svg version="1.0" xmlns="http://www.w3.org/2000/svg"
 width="234.000000pt" height="234.000000pt" viewBox="0 0 234.000000 234.000000"
 preserveAspectRatio="xMidYMid meet">

<g transform="translate(0.000000,234.000000) scale(0.100000,-0.100000)"
fill="#000000" stroke="none">
<path d="M990 1966 c-328 -69 -584 -318 -661 -644 -18 -73 -20 -109 -17 -222
4 -118 9 -147 37 -230 93 -275 296 -471 578 -556 76 -23 107 -27 223 -28 190
-1 315 35 464 131 434 280 522 867 191 1267 -93 112 -281 230 -430 271 -82 23
-300 29 -385 11z m378 -505 c3 -46 11 -65 63 -142 l59 -89 -2 -197 -3 -198
-307 -3 c-301 -2 -307 -2 -318 18 -7 14 -10 84 -8 203 l3 182 63 92 c56 83 62
97 62 143 l0 50 193 -2 192 -3 3 -54z m-550 -419 c2 -148 0 -173 -13 -178 -8
-4 -22 -1 -30 6 -12 10 -15 42 -15 165 0 85 3 161 6 170 4 9 15 15 28 13 20
-3 21 -8 24 -176z m760 0 c2 -148 0 -173 -13 -178 -8 -4 -22 -1 -30 6 -12 10
-15 42 -15 165 0 85 3 161 6 170 4 9 15 15 28 13 20 -3 21 -8 24 -176z"/>
<path d="M1035 1459 c-15 -24 16 -30 141 -27 107 3 129 6 129 18 0 12 -23 15
-132 18 -89 2 -134 -1 -138 -9z"/>
<path d="M967 1295 l-57 -85 0 -160 0 -160 140 0 140 0 0 173 0 172 45 67 c25
37 45 70 45 73 0 3 -58 5 -128 5 l-129 0 -56 -85z"/>
<path d="M1293 1285 l-43 -65 0 -165 0 -165 90 0 90 0 0 163 0 162 -45 68
c-25 37 -46 67 -48 67 -1 0 -21 -30 -44 -65z"/>
</g>
</svg>
