<?xml version="1.0" standalone="no"?>
<!DOCTYPE svg PUBLIC "-//W3C//DTD SVG 20010904//EN"
 "http://www.w3.org/TR/2001/REC-SVG-20010904/DTD/svg10.dtd">
<svg version="1.0" xmlns="http://www.w3.org/2000/svg"
 width="230.000000pt" height="230.000000pt" viewBox="0 0 230.000000 230.000000"
 preserveAspectRatio="xMidYMid meet">

<g transform="translate(0.000000,230.000000) scale(0.100000,-0.100000)"
fill="#000000" stroke="none">
<path d="M987 1964 c-253 -46 -485 -222 -602 -459 -64 -130 -86 -223 -86 -368
1 -257 90 -462 274 -633 174 -161 371 -233 612 -221 126 6 179 17 283 59 108
44 174 90 278 193 94 93 106 109 157 215 69 143 92 238 90 380 -2 290 -145
553 -384 712 -173 114 -408 161 -622 122z m458 -359 c0 -18 -8 -21 -79 -25
l-79 -5 -23 -85 c-13 -47 -24 -86 -24 -87 0 -2 23 -3 52 -3 68 0 88 -18 88
-79 0 -56 -48 -589 -55 -612 -10 -31 -53 -39 -205 -39 -155 0 -192 7 -208 37
-6 10 -23 161 -38 337 l-29 318 24 19 c20 17 41 19 167 19 l143 0 11 43 c6 23
15 56 20 72 5 17 14 49 20 73 l11 43 102 -3 c94 -3 102 -4 102 -23z"/>
<path d="M910 1303 c0 -21 3 -55 6 -76 l7 -38 100 3 100 3 19 65 c10 36 18 68
18 73 0 4 -56 7 -125 7 l-125 0 0 -37z"/>
<path d="M1203 1265 l-20 -75 63 0 c72 0 69 -3 77 98 l4 52 -52 0 -52 0 -20
-75z"/>
<path d="M930 1093 c0 -21 7 -103 15 -183 8 -80 15 -153 15 -162 0 -16 14 -18
154 -18 l154 0 6 38 c3 20 10 96 16 167 6 72 13 145 16 163 l5 32 -191 0 -190
0 0 -37z"/>
</g>
</svg>
