<?xml version="1.0" standalone="no"?>
<!DOCTYPE svg PUBLIC "-//W3C//DTD SVG 20010904//EN"
 "http://www.w3.org/TR/2001/REC-SVG-20010904/DTD/svg10.dtd">
<svg version="1.0" xmlns="http://www.w3.org/2000/svg"
 width="512.000000pt" height="512.000000pt" viewBox="0 0 512.000000 512.000000"
 preserveAspectRatio="xMidYMid meet">

<g transform="translate(0.000000,512.000000) scale(0.100000,-0.100000)"
fill="#000000" stroke="none">
<path d="M2341 4609 c-822 -93 -1509 -661 -1750 -1446 -130 -424 -117 -901 35
-1311 107 -287 264 -532 479 -747 516 -515 1254 -718 1960 -540 738 185 1316
768 1495 1508 171 702 -37 1438 -549 1947 -309 307 -692 502 -1131 575 -115
19 -423 27 -539 14z m549 -138 c399 -69 756 -256 1047 -547 61 -61 116 -120
121 -130 8 -17 -26 -46 -276 -234 -157 -118 -294 -223 -304 -232 -21 -21 -24
-71 -5 -86 42 -33 46 -31 363 208 168 127 307 230 309 228 26 -29 120 -189
161 -274 340 -699 223 -1540 -295 -2131 -466 -531 -1218 -767 -1910 -597 -376
93 -744 312 -984 588 l-68 77 213 161 c117 88 223 170 236 181 40 37 18 107
-33 107 -14 0 -115 -70 -255 -176 -127 -97 -233 -174 -235 -172 -25 28 -119
188 -161 274 -377 776 -186 1730 460 2296 301 264 682 433 1077 477 128 15
405 5 539 -18z"/>
<path d="M2126 3784 c-12 -12 -16 -37 -16 -107 l0 -92 -175 -303 -175 -302 0
-824 c0 -796 1 -825 19 -847 l19 -24 762 0 762 0 19 24 c18 22 19 51 19 847
l0 824 -175 302 -175 303 0 92 c0 70 -4 95 -16 107 -13 14 -67 16 -434 16
-367 0 -421 -2 -434 -16z m764 -129 l0 -25 -330 0 -330 0 0 25 0 25 330 0 330
0 0 -25z m30 -160 c7 -9 71 -116 141 -238 l128 -222 -312 -3 c-171 -1 -317 0
-323 2 -10 4 -255 420 -270 459 -6 16 14 17 309 17 271 0 316 -2 327 -15z
m-629 -258 l116 -202 -119 -3 c-65 -1 -172 -1 -238 0 l-119 3 117 203 c64 111
119 202 122 202 3 -1 57 -92 121 -203z m159 -1082 l0 -755 -282 2 -283 3 -3
753 -2 752 285 0 285 0 0 -755z m788 558 l-3 -198 -330 0 -330 0 -3 185 c-1
101 0 190 2 197 4 10 76 13 336 13 l330 0 -2 -197z m-8 -558 l0 -235 -325 0
-325 0 0 235 0 235 325 0 325 0 0 -235z m8 -552 l-3 -198 -330 0 -330 0 -3
198 -2 197 335 0 335 0 -2 -197z"/>
</g>
</svg>
