<?xml version="1.0" standalone="no"?>
<!DOCTYPE svg PUBLIC "-//W3C//DTD SVG 20010904//EN"
 "http://www.w3.org/TR/2001/REC-SVG-20010904/DTD/svg10.dtd">
<svg version="1.0" xmlns="http://www.w3.org/2000/svg"
 width="512.000000pt" height="512.000000pt" viewBox="0 0 512.000000 512.000000"
 preserveAspectRatio="xMidYMid meet">

<g transform="translate(0.000000,512.000000) scale(0.100000,-0.100000)"
fill="#000000" stroke="none">
<path d="M2341 4609 c-822 -93 -1509 -661 -1750 -1446 -130 -424 -117 -901 35
-1311 107 -287 264 -532 479 -747 516 -515 1254 -718 1960 -540 738 185 1316
768 1495 1508 171 702 -37 1438 -549 1947 -309 307 -692 502 -1131 575 -115
19 -423 27 -539 14z m549 -138 c399 -69 756 -256 1047 -547 61 -61 116 -120
121 -130 8 -17 -26 -46 -276 -234 -157 -118 -294 -223 -304 -232 -21 -21 -24
-71 -5 -86 42 -33 46 -31 363 208 168 127 307 230 309 228 26 -29 120 -189
161 -274 340 -699 223 -1540 -295 -2131 -466 -531 -1218 -767 -1910 -597 -376
93 -744 312 -985 588 l-67 77 298 226 c164 123 301 230 305 236 12 19 9 64 -4
75 -43 33 -47 31 -363 -208 -169 -127 -308 -230 -310 -228 -25 28 -120 189
-161 274 -377 776 -186 1730 460 2296 301 264 682 433 1077 477 128 15 405 5
539 -18z"/>
<path d="M1884 3563 l-221 -95 -138 -344 c-127 -320 -136 -346 -122 -367 10
-16 109 -60 345 -154 182 -73 338 -133 346 -133 23 0 419 171 439 189 20 19
277 655 277 687 0 11 -8 28 -17 36 -16 13 -671 279 -684 277 -2 0 -104 -43
-225 -96z m463 -125 c128 -51 233 -95 233 -98 0 -7 -216 -100 -233 -100 -7 0
-117 42 -245 93 l-233 93 118 52 c65 28 120 51 123 51 3 1 109 -41 237 -91z
m-329 -205 c133 -53 242 -102 242 -107 0 -28 -204 -517 -214 -513 -6 3 -121
48 -255 101 -134 53 -247 99 -251 101 -5 3 35 112 87 243 52 130 99 248 104
261 7 16 14 21 27 17 9 -4 126 -50 260 -103z m530 -240 c-50 -126 -96 -233
-102 -240 -13 -14 -226 -106 -232 -101 -2 3 38 108 89 236 l92 232 115 49 c63
28 118 51 122 51 3 0 -35 -102 -84 -227z"/>
<path d="M3015 2609 c-176 -43 -329 -83 -340 -87 -19 -9 -265 -400 -265 -421
0 -29 170 -704 180 -716 7 -8 24 -15 39 -15 35 0 693 160 708 172 19 15 253
404 253 419 -1 34 -169 701 -180 714 -7 8 -27 15 -44 14 -17 -1 -175 -36 -351
-80z m153 -186 l-66 -108 -248 -62 c-136 -34 -249 -61 -250 -60 -2 1 28 52 65
112 l67 110 245 61 c134 33 246 59 248 57 2 -1 -25 -51 -61 -110z m292 -438
c0 -12 -30 -70 -67 -129 l-66 -109 -58 239 c-33 132 -59 246 -59 254 0 9 30
65 67 125 l67 109 57 -235 c32 -128 58 -243 59 -254z m-299 -78 c36 -149 65
-273 65 -273 -2 -4 -508 -124 -528 -127 -20 -2 -26 15 -88 270 l-67 272 256
61 c141 34 261 63 266 65 6 2 15 4 20 4 6 0 40 -122 76 -272z"/>
</g>
</svg>
