<?xml version="1.0" standalone="no"?>
<!DOCTYPE svg PUBLIC "-//W3C//DTD SVG 20010904//EN"
 "http://www.w3.org/TR/2001/REC-SVG-20010904/DTD/svg10.dtd">
<svg version="1.0" xmlns="http://www.w3.org/2000/svg"
 width="512.000000pt" height="512.000000pt" viewBox="0 0 512.000000 512.000000"
 preserveAspectRatio="xMidYMid meet">

<g transform="translate(0.000000,512.000000) scale(0.100000,-0.100000)"
fill="#000000" stroke="none">
<path d="M2341 4609 c-822 -93 -1509 -661 -1750 -1446 -130 -424 -117 -901 35
-1311 107 -287 264 -532 479 -747 516 -515 1254 -718 1960 -540 738 185 1316
768 1495 1508 171 702 -37 1438 -549 1947 -309 307 -692 502 -1131 575 -115
19 -423 27 -539 14z m549 -138 c399 -69 756 -256 1047 -547 61 -61 116 -120
121 -130 8 -17 -26 -46 -276 -234 -157 -118 -294 -223 -304 -232 -21 -21 -24
-71 -5 -86 42 -33 46 -31 363 208 168 127 307 230 309 228 26 -29 120 -189
161 -274 340 -699 223 -1540 -295 -2131 -466 -531 -1218 -767 -1910 -597 -376
93 -744 312 -985 588 l-67 77 298 226 c164 123 301 230 305 236 12 19 9 64 -4
75 -43 33 -47 31 -363 -208 -169 -127 -308 -230 -310 -228 -25 28 -120 189
-161 274 -377 776 -186 1730 460 2296 301 264 682 433 1077 477 128 15 405 5
539 -18z"/>
<path d="M1608 3808 c-25 -20 -101 -169 -153 -301 -90 -228 -108 -409 -50
-530 30 -65 116 -163 182 -208 62 -43 73 -71 73 -186 0 -54 7 -122 15 -152 31
-119 103 -226 199 -296 81 -60 96 -92 96 -212 0 -287 140 -429 563 -568 161
-53 198 -60 226 -45 12 6 46 60 77 123 83 165 123 272 158 428 l6 26 52 -15
c80 -23 389 -22 536 2 160 26 155 20 160 204 10 341 -46 565 -168 675 -63 57
-131 91 -235 116 -43 11 -91 29 -105 39 -26 19 -30 27 -75 124 -56 123 -251
272 -403 308 -53 12 -122 65 -122 93 0 7 -13 39 -29 72 -56 118 -155 209 -269
247 -61 20 -87 22 -302 23 -210 1 -243 4 -310 23 -86 25 -100 27 -122 10z
m187 -155 c105 -33 242 -93 311 -134 131 -80 174 -161 174 -328 0 -140 21
-193 102 -263 107 -92 140 -130 172 -197 27 -59 31 -79 36 -196 9 -176 25
-209 138 -292 70 -52 137 -143 148 -200 12 -66 -3 -194 -35 -290 -30 -92 -103
-260 -131 -302 l-15 -23 -128 42 c-158 51 -309 126 -374 185 -75 67 -95 121
-103 280 -9 172 -25 205 -145 296 -64 48 -128 139 -150 212 -9 31 -15 91 -15
157 0 138 -22 187 -119 264 -127 101 -162 156 -169 261 -7 115 48 305 145 498
30 60 37 67 56 62 12 -3 58 -18 102 -32z m529 -23 c81 -31 135 -90 196 -215
66 -135 115 -176 242 -199 45 -8 168 -89 233 -151 29 -29 58 -72 81 -122 56
-124 94 -154 243 -192 100 -25 157 -56 205 -113 69 -80 106 -256 106 -504 l0
-132 -87 -13 c-50 -8 -163 -14 -258 -14 -143 1 -179 4 -225 20 -53 19 -55 22
-62 64 -16 95 -82 191 -189 277 -86 69 -102 100 -93 187 17 171 -75 361 -227
473 -68 50 -83 81 -80 176 3 139 -38 270 -110 353 -17 19 -66 58 -108 86 l-76
51 77 -6 c42 -3 101 -15 132 -26z"/>
<path d="M1821 3538 c-107 -16 -200 -89 -249 -197 -20 -44 -26 -71 -26 -132 0
-67 5 -86 33 -143 62 -127 171 -191 316 -184 128 5 222 65 282 180 25 47 28
63 28 148 0 81 -4 103 -25 145 -66 134 -206 205 -359 183z m183 -156 c22 -15
50 -47 64 -72 20 -38 23 -56 20 -112 -3 -56 -9 -74 -35 -110 -43 -59 -100 -88
-175 -88 -124 0 -212 87 -212 210 0 175 194 274 338 172z"/>
<path d="M2079 2877 c-91 -34 -155 -93 -196 -182 -73 -160 -4 -352 159 -436
32 -17 66 -24 130 -27 80 -4 92 -2 150 25 78 37 133 91 167 163 22 46 26 69
26 140 0 71 -4 94 -26 140 -31 67 -93 130 -157 161 -58 28 -196 37 -253 16z
m229 -141 c81 -56 114 -173 73 -261 -39 -84 -103 -125 -198 -125 -98 0 -179
64 -205 163 -23 87 22 184 108 235 33 19 51 22 110 20 59 -3 78 -8 112 -32z"/>
<path d="M2400 2231 c-90 -29 -174 -104 -213 -189 -30 -66 -30 -198 0 -264 99
-218 387 -269 549 -96 68 73 89 126 89 228 0 101 -20 154 -86 225 -66 71 -126
98 -229 101 -47 2 -96 0 -110 -5z m188 -130 c139 -72 163 -248 47 -349 -47
-42 -77 -53 -142 -53 -64 0 -112 21 -157 71 -94 104 -63 264 63 330 49 26 140
26 189 1z"/>
</g>
</svg>
