<?xml version="1.0" standalone="no"?>
<!DOCTYPE svg PUBLIC "-//W3C//DTD SVG 20010904//EN"
 "http://www.w3.org/TR/2001/REC-SVG-20010904/DTD/svg10.dtd">
<svg version="1.0" xmlns="http://www.w3.org/2000/svg"
 width="512.000000pt" height="512.000000pt" viewBox="0 0 512.000000 512.000000"
 preserveAspectRatio="xMidYMid meet">

<g transform="translate(0.000000,512.000000) scale(0.100000,-0.100000)"
fill="#000000" stroke="none">
<path d="M2341 4609 c-822 -93 -1509 -661 -1750 -1446 -130 -424 -117 -901 35
-1311 107 -287 264 -532 479 -747 516 -515 1254 -718 1960 -540 738 185 1316
768 1495 1508 171 702 -37 1438 -549 1947 -309 307 -692 502 -1131 575 -115
19 -423 27 -539 14z m549 -138 c399 -69 756 -256 1047 -547 61 -61 116 -120
121 -130 8 -17 -26 -46 -276 -234 -157 -118 -294 -223 -304 -232 -21 -21 -24
-71 -5 -86 42 -33 46 -31 363 208 168 127 307 230 309 228 26 -29 120 -189
161 -274 340 -699 223 -1540 -295 -2131 -466 -531 -1218 -767 -1910 -597 -376
93 -744 312 -985 588 l-67 77 298 226 c164 123 301 230 305 236 12 19 9 64 -4
75 -43 33 -47 31 -363 -208 -169 -127 -308 -230 -310 -228 -25 28 -120 189
-161 274 -377 776 -186 1730 460 2296 301 264 682 433 1077 477 128 15 405 5
539 -18z"/>
<path d="M1575 3796 c-45 -45 -47 -224 -2 -335 l24 -60 -68 -21 c-67 -20 -89
-39 -89 -74 0 -8 43 -67 95 -130 69 -83 114 -127 163 -160 63 -42 68 -48 64
-76 -4 -26 8 -44 91 -144 63 -75 116 -127 157 -155 34 -22 66 -41 71 -41 5 0
5 -10 0 -22 -13 -34 -2 -53 101 -173 63 -73 115 -123 156 -149 54 -35 60 -42
56 -66 -5 -22 6 -41 57 -106 176 -220 303 -294 509 -294 l86 0 18 -32 c10 -18
36 -57 58 -85 45 -62 78 -69 126 -28 l30 25 54 -62 c30 -35 98 -115 151 -179
94 -113 112 -129 143 -129 21 0 54 37 54 60 0 11 -72 106 -164 216 l-164 196
24 53 c28 61 54 171 54 230 0 65 -28 176 -61 243 -33 69 -200 278 -228 287
-10 3 -25 3 -33 0 -11 -4 -20 8 -33 42 -25 67 -69 133 -160 241 -70 82 -82 92
-112 92 -20 0 -33 5 -33 13 0 35 -68 145 -154 250 -81 98 -102 117 -125 117
-25 0 -32 9 -69 83 -48 94 -201 284 -237 293 -35 9 -58 -9 -85 -65 l-23 -50
-62 63 c-97 99 -230 156 -367 156 -38 0 -54 -5 -73 -24z m186 -112 c105 -32
193 -108 240 -209 21 -46 25 -95 7 -95 -7 0 -30 5 -51 11 -20 5 -81 15 -135
22 l-97 12 -29 58 c-23 46 -30 77 -34 138 -5 78 -4 79 20 79 13 0 49 -7 79
-16z m477 -197 c103 -128 135 -235 112 -381 -7 -47 -16 -89 -19 -94 -4 -7 -34
-4 -81 7 l-75 18 -18 59 c-36 118 -33 278 9 407 9 26 17 47 18 47 1 0 26 -28
54 -63z m-393 -197 c39 -6 91 -17 117 -26 46 -15 46 -16 53 -67 4 -29 13 -76
20 -104 l13 -53 -53 0 c-72 0 -167 31 -231 75 -48 33 -159 154 -150 163 6 5
96 19 131 21 17 0 62 -4 100 -9z m756 -245 c68 -102 85 -204 59 -353 -11 -60
-16 -72 -29 -67 -9 4 -43 12 -76 19 l-60 12 -19 55 c-38 110 -32 314 14 434
l11 30 30 -35 c17 -19 48 -62 70 -95z m-368 -145 c85 -19 97 -26 97 -62 0 -18
7 -60 15 -93 22 -92 25 -89 -53 -82 -118 10 -225 66 -306 161 -59 70 -60 79
-11 88 50 8 199 2 258 -12z m652 -185 c93 -117 119 -223 95 -381 -7 -46 -16
-84 -19 -84 -15 0 -141 29 -149 34 -20 12 -46 151 -46 246 1 96 36 264 55 258
4 -2 33 -34 64 -73z m-330 -195 c43 -11 80 -22 82 -24 2 -2 8 -35 14 -72 5
-38 14 -82 19 -98 6 -16 7 -32 4 -35 -13 -13 -122 -1 -175 18 -82 31 -143 75
-206 150 l-56 66 34 6 c76 14 206 9 284 -11z m632 -164 c122 -153 152 -302 89
-457 -24 -60 -65 -129 -77 -129 -10 0 -76 140 -94 200 -26 89 -31 223 -10 316
20 92 31 124 42 124 5 -1 27 -25 50 -54z m-281 -220 l52 -16 7 -56 c4 -31 13
-79 20 -106 l13 -50 -77 4 c-115 7 -194 47 -288 145 -40 42 -73 80 -73 84 0
14 44 17 170 14 80 -1 143 -8 176 -19z"/>
</g>
</svg>
