<svg xmlns="http://www.w3.org/2000/svg" viewBox="0 0 64 74"><g fill="#0E0F19"><path d="M26.66 8.48a5.96 5.96 0 0 1 10.36 0l3.07 5.17-2.39 1.42 9.58 5.45V9.48L44.9 10.9l-3.03-5.22a11.59 11.59 0 0 0-19.97 0L11.68 23.41l4.81 2.75L26.66 8.48Zm5.32 44.43H11.5a5.9 5.9 0 0 1-5.97-5.95 6 6 0 0 1 .8-2.98l3.2-5.4 2.34 1.37V28.9l-9.58 5.45 2.38 1.37-3.2 5.46a11.54 11.54 0 0 0 9.94 17.27h20.48l.09-5.55ZM62.4 41.19 52.18 23.46 47.6 26.2l10.2 17.73a6.1 6.1 0 0 1 0 6 5.9 5.9 0 0 1-5.17 2.98h-6.46v-2.75l-9.58 5.5 9.58 5.55v-2.75h6.46a11.54 11.54 0 0 0 9.94-17.27"/><path d="M24.33 35.96a2.47 2.47 0 0 1 1.92-.73 2.43 2.43 0 0 1 2.47 1.7c.12.37.17.76.14 1.14.05.75-.2 1.5-.69 2.06a2.89 2.89 0 0 1-3.84 0 2.89 2.89 0 0 1-.7-2.06c-.05-.76.2-1.52.7-2.1Zm0-7.42c.47-.4 1.07-.61 1.7-.6a2.06 2.06 0 0 1 2.24 2.3 2.2 2.2 0 0 1-.6 1.65 2.15 2.15 0 0 1-1.65.6 2.15 2.15 0 0 1-2.34-2.25 2.34 2.34 0 0 1 .65-1.7Zm-3.94 7.01a5.59 5.59 0 0 0-.33 4.86 5.36 5.36 0 0 0 3.32 3.07c.79.27 1.62.38 2.46.32a6.41 6.41 0 0 0 4.58-1.6 5.09 5.09 0 0 0 1.7-3.9c0-.95-.22-1.9-.65-2.75a4.86 4.86 0 0 0-2.06-2.02 3.8 3.8 0 0 0 1.74-1.78c.23-.6.35-1.24.37-1.88a4.58 4.58 0 0 0-1.47-3.39 7.06 7.06 0 0 0-8.47 0 4.58 4.58 0 0 0-1.47 3.39c0 .64.12 1.28.37 1.88.38.8.98 1.46 1.74 1.92a4.03 4.03 0 0 0-2.02 1.88m23.05 7.56V24.79H40.4c.03.24.03.48 0 .73-.12.5-.36.95-.7 1.33a3.2 3.2 0 0 1-1.73.91c-.79.14-1.59.21-2.38.23v2.43h4.3v12.55l3.35.14ZM21.17 70.05c-.08.33-.22.64-.42.91a1.6 1.6 0 0 1-1.37.6 1.79 1.79 0 0 1-1.42-.69c-.41-.6-.6-1.33-.55-2.06-.04-.75.14-1.5.5-2.15a1.74 1.74 0 0 1 1.47-.73 1.7 1.7 0 0 1 1.37.5c.21.27.35.58.42.92h1.74a3.3 3.3 0 0 0-3.57-2.93 3.43 3.43 0 0 0-2.57 1.05c-.8.9-1.22 2.09-1.15 3.3a4.86 4.86 0 0 0 1.01 3.16 3.48 3.48 0 0 0 2.8 1.14 3.3 3.3 0 0 0 2.33-.87c.6-.57 1-1.33 1.1-2.15h-1.7Zm4.81-5.68-3.21 8.47h1.33l3.2-8.47h-1.32Zm5.68 3.66c-.26.2-.59.3-.92.28h-1.56v-2.43h1.56c.33-.03.66.07.92.27a1.1 1.1 0 0 1 .32.92 1.28 1.28 0 0 1-.32.96Zm1.33-2.93a2.75 2.75 0 0 0-1.97-.64h-3.53v8.24h1.7v-2.97h1.73c.74.04 1.47-.17 2.07-.6a2.66 2.66 0 0 0 .73-2.06 2.52 2.52 0 0 0-.73-1.97Zm3.48 4.63 1.1-3.26 1.05 3.26h-2.15Zm0-5.13-2.93 8.24h1.78l.55-1.7h3.07l.5 1.7h1.88L38.4 64.6h-1.92Zm10.26 3.43c-.26.2-.59.3-.92.28h-1.55v-2.43h1.55c.33-.02.66.08.92.27a1.1 1.1 0 0 1 .32.92 1.28 1.28 0 0 1-.32.96Zm-.64-3.57h-3.53v8.24h1.7v-2.97H46c.73.04 1.46-.17 2.06-.6a2.66 2.66 0 0 0 .73-2.06 2.52 2.52 0 0 0-.73-1.97 2.98 2.98 0 0 0-1.97-.64Z"/></g></svg>