<?xml version="1.0" standalone="no"?>
<!DOCTYPE svg PUBLIC "-//W3C//DTD SVG 20010904//EN"
 "http://www.w3.org/TR/2001/REC-SVG-20010904/DTD/svg10.dtd">
<svg version="1.0" xmlns="http://www.w3.org/2000/svg"
 width="230.000000pt" height="230.000000pt" viewBox="0 0 230.000000 230.000000"
 preserveAspectRatio="xMidYMid meet">

<g transform="translate(0.000000,230.000000) scale(0.100000,-0.100000)"
fill="#000000" stroke="none">
<path d="M999 1955 c-325 -62 -579 -293 -671 -612 -31 -106 -33 -343 -4 -443
111 -382 437 -631 825 -631 388 0 719 256 822 637 34 121 31 317 -5 437 -77
256 -247 452 -482 557 -136 59 -340 83 -485 55z m349 -457 c7 -7 12 -32 12
-57 0 -38 9 -59 60 -136 l60 -92 -2 -194 -3 -194 -312 -3 -313 -2 0 202 0 203
60 90 c51 77 60 97 60 136 0 25 3 49 7 52 12 13 358 8 371 -5z m-540 -472 c-3
-158 -4 -171 -22 -174 -10 -2 -22 2 -27 10 -5 7 -9 81 -9 165 0 123 3 154 15
167 9 8 22 13 31 9 12 -4 14 -32 12 -177z m760 -5 c-3 -153 -4 -166 -22 -169
-10 -2 -22 2 -27 10 -5 7 -9 81 -9 165 0 126 3 154 16 168 13 12 19 13 30 4
12 -10 14 -44 12 -178z"/>
<path d="M1030 1435 c0 -13 22 -15 135 -15 113 0 135 2 135 15 0 13 -22 15
-135 15 -113 0 -135 -2 -135 -15z"/>
<path d="M955 1277 l-56 -83 3 -160 3 -159 135 0 135 0 3 173 2 174 38 56 c21
32 42 63 46 70 6 9 -22 12 -123 12 l-131 0 -55 -83z"/>
<path d="M1281 1267 l-41 -63 0 -167 0 -167 90 0 90 0 0 167 0 167 -41 63
c-23 35 -45 63 -49 63 -4 0 -26 -28 -49 -63z"/>
</g>
</svg>
