<?xml version="1.0" standalone="no"?>
<!DOCTYPE svg PUBLIC "-//W3C//DTD SVG 20010904//EN"
 "http://www.w3.org/TR/2001/REC-SVG-20010904/DTD/svg10.dtd">
<svg version="1.0" xmlns="http://www.w3.org/2000/svg"
 width="129.000000pt" height="55.000000pt" viewBox="0 0 129.000000 55.000000"
 preserveAspectRatio="xMidYMid meet">

<g transform="translate(0.000000,55.000000) scale(0.100000,-0.100000)"
fill="#000000" stroke="none">
<path d="M114 540 c-31 -12 -54 -49 -54 -87 0 -27 -4 -32 -27 -35 -39 -4 -42
-28 -4 -28 l31 0 0 -135 c0 -119 2 -135 17 -135 14 0 15 14 10 135 l-6 135 59
0 c46 0 60 3 60 15 0 10 -15 15 -57 17 -58 3 -58 3 -55 33 4 41 37 67 81 63
39 -3 54 16 19 26 -30 8 -48 7 -74 -4z"/>
<path d="M389 518 c0 -2 -1 -24 -2 -50 -1 -46 -2 -48 -29 -48 -18 0 -28 -5
-28 -15 0 -10 10 -15 31 -15 l31 0 -2 -87 c-4 -124 -3 -137 20 -161 15 -16 33
-22 61 -22 45 0 83 16 74 31 -4 6 -13 5 -25 -1 -29 -15 -65 -12 -83 8 -14 15
-17 40 -17 125 l0 107 60 0 c47 0 60 3 60 15 0 12 -13 15 -60 15 l-60 0 0 50
c0 38 -4 50 -15 50 -8 0 -15 -1 -16 -2z"/>
<path d="M244 495 c-4 -9 -2 -21 4 -27 15 -15 44 -1 40 19 -4 23 -36 29 -44 8z"/>
<path d="M619 409 c-44 -26 -79 -84 -79 -131 0 -44 37 -116 73 -142 45 -33
121 -29 178 10 l45 31 32 -25 c41 -32 109 -40 153 -18 40 20 39 20 39 -4 0
-12 -11 -32 -25 -46 -23 -23 -33 -25 -78 -22 -29 2 -59 8 -68 12 -11 5 -19 -1
-28 -21 -18 -40 5 -53 97 -53 57 0 82 5 107 20 56 35 65 68 65 244 l0 156 -30
0 c-20 0 -30 -5 -30 -15 0 -19 -14 -19 -30 0 -7 8 -28 17 -47 21 -85 16 -166
-46 -178 -137 -6 -40 -12 -51 -43 -72 -44 -30 -58 -34 -95 -24 -36 10 -30 17
46 62 55 32 65 42 75 79 10 38 9 43 -13 65 -34 35 -116 40 -166 10z m102 -49
c10 -6 19 -14 19 -19 0 -8 -112 -81 -124 -81 -11 0 -6 55 7 71 27 35 65 46 98
29z m314 -25 c53 -52 18 -145 -54 -145 -48 0 -79 23 -86 64 -7 35 14 90 37 99
34 14 80 6 103 -18z"/>
<path d="M1192 418 c-24 -12 -24 -36 -1 -29 8 2 22 6 31 8 11 3 20 -2 24 -12
5 -13 -4 -27 -34 -52 -58 -48 -55 -63 13 -63 42 0 55 3 55 15 0 9 -10 15 -26
15 l-26 0 31 35 c37 42 39 59 9 79 -26 18 -44 19 -76 4z"/>
<path d="M250 270 c0 -127 2 -150 15 -150 13 0 15 23 15 150 0 127 -2 150 -15
150 -13 0 -15 -23 -15 -150z"/>
</g>
</svg>
